<svg viewBox="0 0 320 82.78" xmlns="http://www.w3.org/2000/svg"><g fill="#fc6253"><path d="m103.84 49.4c1.17 0 2.27.21 3.28.64s1.89 1.01 2.64 1.76 1.33 1.62 1.76 2.64c.43 1.01.64 2.11.64 3.28s-.21 2.27-.64 3.28-1.01 1.89-1.76 2.64-1.62 1.32-2.64 1.74c-1.01.42-2.11.63-3.28.63s-2.27-.21-3.28-.63-1.89-1-2.64-1.74-1.32-1.62-1.74-2.64-.63-2.11-.63-3.28.21-2.27.63-3.28 1-1.89 1.74-2.64 1.62-1.33 2.64-1.76c1.01-.43 2.11-.64 3.28-.64z"/><path d="m149.65 29.84h-11.5v35.62h-14.88v-35.62h-11.5v-12.45h37.89v12.45z"/><path d="m147.99 33.87c2.3-1.33 4.83-2.33 7.59-3.01s5.65-1.01 8.68-1.01c2.8 0 5.25.3 7.37.9s3.89 1.49 5.31 2.69 2.49 2.7 3.21 4.52 1.08 3.94 1.08 6.38v8.25c0 1.29.55 1.93 1.66 1.93.38 0 .71-.04.98-.14.27-.09.54-.23.81-.41l.91 10.52c-1.13.56-2.32.98-3.57 1.25s-2.61.41-4.08.41c-1.94 0-3.56-.32-4.85-.96-1.3-.64-2.33-1.45-3.1-2.42-.47.45-1.04.89-1.69 1.32s-1.4.81-2.23 1.13c-.83.33-1.75.59-2.76.79-1 .2-2.1.3-3.3.3-2.01 0-3.79-.28-5.34-.85-1.56-.56-2.88-1.34-3.96-2.32s-1.91-2.13-2.47-3.45-.85-2.75-.85-4.28c0-1.76.36-3.33 1.08-4.72s1.75-2.57 3.08-3.55 2.94-1.73 4.84-2.25c1.89-.52 4.03-.78 6.39-.78.83 0 1.59.03 2.27.08.68.06 1.31.14 1.89.25v-.81c0-.56-.1-1.05-.3-1.47s-.51-.76-.93-1.03-.95-.47-1.61-.61c-.65-.14-1.42-.2-2.3-.2-2.08 0-4.08.29-6.02.86-1.94.58-3.74 1.44-5.41 2.59l-2.4-9.91zm18.98 18.37c-.38-.11-.76-.19-1.13-.22s-.72-.05-1.03-.05c-.61 0-1.13.07-1.56.2-.43.14-.78.32-1.05.56s-.47.52-.59.86-.19.7-.19 1.08.06.73.19 1.03c.12.3.3.56.54.78.24.21.52.38.86.49s.71.17 1.12.17c.59 0 1.12-.09 1.59-.27s.89-.43 1.25-.74z"/><path d="m190.37 54.03c1.56.86 3.03 1.49 4.41 1.89s2.78.61 4.18.61c.56 0 1.03-.03 1.39-.08.36-.06.64-.14.85-.25.2-.11.34-.24.42-.37.08-.14.12-.29.12-.47 0-.36-.2-.67-.61-.93s-.95-.51-1.62-.74c-.68-.24-1.44-.48-2.3-.74s-1.74-.58-2.64-.96-1.78-.85-2.64-1.4-1.62-1.23-2.3-2.05c-.68-.81-1.22-1.78-1.62-2.91-.41-1.13-.61-2.46-.61-3.99 0-1.8.37-3.43 1.1-4.89.73-1.45 1.79-2.69 3.16-3.7 1.38-1.01 3.03-1.8 4.97-2.35s4.13-.83 6.56-.83c1.98 0 3.88.19 5.7.58 1.82.38 3.49.94 5.02 1.66l-2.33 9.54c-1.29-.65-2.6-1.15-3.96-1.49-1.35-.34-2.67-.51-3.96-.51-.38 0-.72.02-1 .07s-.52.11-.71.2-.33.2-.42.34-.14.3-.14.51c0 .34.2.62.61.85s.95.45 1.62.68c.68.23 1.44.46 2.3.71s1.74.56 2.64.95c.9.38 1.78.85 2.64 1.4s1.62 1.25 2.3 2.08 1.22 1.83 1.62 2.98.61 2.5.61 4.06c0 1.83-.37 3.47-1.1 4.92s-1.79 2.7-3.18 3.74-3.07 1.83-5.04 2.38-4.2.83-6.68.83c-1.01 0-2.04-.05-3.06-.15-1.03-.1-2.04-.26-3.04-.47s-1.98-.48-2.93-.81-1.84-.7-2.67-1.13l2.33-9.71z"/><path d="m234.38 40.02c1.56-1.24 3.07-2.66 4.53-4.25 1.47-1.59 2.86-3.33 4.19-5.23h14.48c-1.29 2.5-2.72 4.86-4.3 7.07s-3.24 4.31-4.97 6.29c1.76 3.34 3.41 6.77 4.96 10.28 1.54 3.52 3.1 7.27 4.65 11.26h-15.73c-.83-2.23-1.7-4.4-2.59-6.49-.89-2.1-1.84-4.21-2.86-6.33-.38.25-.78.49-1.18.71s-.8.43-1.18.61v11.5h-14.28v-50.28l14.28-1.39z"/><path d="m292.09 63.47c-2.05.95-4.25 1.66-6.6 2.13s-4.81.71-7.41.71c-3.18 0-6.02-.4-8.51-1.2s-4.6-1.96-6.31-3.48-3.02-3.39-3.92-5.62c-.9-2.22-1.35-4.75-1.35-7.59s.42-5.41 1.25-7.71 2.02-4.27 3.57-5.9c1.54-1.63 3.42-2.89 5.63-3.77s4.69-1.32 7.44-1.32c2.48 0 4.7.37 6.66 1.12 1.96.74 3.62 1.86 4.99 3.33 1.36 1.48 2.41 3.33 3.13 5.55s1.08 4.81 1.08 7.76c0 .61-.02 1.22-.05 1.84s-.11 1.31-.22 2.08h-19.55v.07c.27.83.62 1.54 1.05 2.11s.97 1.04 1.62 1.39 1.42.6 2.3.76 1.91.24 3.08.24c1.69 0 3.36-.21 5.01-.63s3.2-1.01 4.67-1.78zm-13.29-19.86c-.05-.81-.15-1.51-.3-2.1-.16-.59-.38-1.09-.66-1.48s-.61-.68-1-.87c-.38-.19-.82-.29-1.32-.29s-.9.1-1.29.29c-.38.19-.73.48-1.03.87s-.57.88-.79 1.48c-.23.59-.41 1.29-.54 2.1z"/><path d="m297 30.55h11.23l.81 3.52c.5-.63 1.02-1.22 1.57-1.76s1.14-1 1.76-1.39c.62-.38 1.29-.68 2.01-.9.72-.21 1.49-.32 2.3-.32.65 0 1.25.05 1.78.15s1.04.27 1.54.49l-.91 12.45c-.47-.18-.95-.32-1.44-.41s-.98-.14-1.47-.14-.97.06-1.42.17-.88.28-1.29.51-.79.49-1.15.79-.71.65-1.05 1.03v20.7h-14.28v-34.89z"/><path d="m0 64.55v1.8c0 9.08 7.36 16.44 16.44 16.44h52.83c9.08 0 16.44-7.36 16.44-16.44v-1.8z"/><path d="m48.14 46.84c-.11.17-.24.33-.39.48l-5.49 5.49c-.58.58-1.34.86-2.09.84-.76.01-1.51-.27-2.09-.84l-5.49-5.49c-.15-.15-.28-.31-.39-.48l-17.86-17.87c-1.13-1.13-1.13-2.96 0-4.09l5.49-5.49c1.13-1.13 2.96-1.13 4.09 0l16.26 16.26 34.66-34.66c-1.74-.63-3.61-.99-5.57-.99h-52.83c-9.08 0-16.44 7.36-16.44 16.44v44.1h85.7v-44.1c0-2.12-.42-4.14-1.15-6l-36.41 36.41z"/></g></svg>